<svg width="40" height="48" viewBox="0 0 40 48" fill="none" xmlns="http://www.w3.org/2000/svg">
<path fill-rule="evenodd" clip-rule="evenodd" d="M34.5868 8.40049L24.9 5.80493C24.2313 5.62574 23.6892 6.04172 23.6892 6.73404V16.7625C23.6892 17.4549 24.2313 18.1614 24.9 18.3405L34.5868 20.9361C35.2555 21.1153 35.7977 20.6993 35.7977 20.007V9.9785C35.7977 9.28617 35.2555 8.57968 34.5868 8.40049ZM24.9 2.04424C22.2251 1.3275 20.0566 2.99141 20.0566 5.7607V15.7892C20.0566 18.5585 22.2251 21.3845 24.9 22.1012L34.5868 24.6968C37.2617 25.4135 39.4302 23.7496 39.4302 20.9803V10.9518C39.4302 8.18254 37.2617 5.35655 34.5868 4.63981L24.9 2.04424Z" fill="#8098F9"/>
<path fill-rule="evenodd" clip-rule="evenodd" d="M26.9812 16.5707L14.8727 13.3263C14.204 13.1471 13.6618 13.5631 13.6618 14.2554V26.791C13.6618 27.4833 14.204 28.1898 14.8727 28.369L26.9812 31.6135C27.6499 31.7927 28.192 31.3767 28.192 30.6844V18.1488C28.192 17.4564 27.6499 16.7499 26.9812 16.5707ZM14.8727 9.5656C12.1978 8.84886 10.0293 10.5128 10.0293 13.2821V25.8177C10.0293 28.587 12.1978 31.413 14.8727 32.1297L26.9812 35.3742C29.6561 36.0909 31.8245 34.427 31.8245 31.6577V19.1221C31.8245 16.3528 29.6561 13.5268 26.9812 12.8101L14.8727 9.5656Z" fill="#6172F3"/>
<path fill-rule="evenodd" clip-rule="evenodd" d="M19.3736 24.741L4.84339 20.8477C4.17466 20.6685 3.63254 21.0844 3.63254 21.7768V36.8195C3.63254 37.5118 4.17466 38.2183 4.84339 38.3975L19.3736 42.2909C20.0423 42.47 20.5844 42.0541 20.5844 41.3617V26.319C20.5844 25.6267 20.0423 24.9202 19.3736 24.741ZM4.84339 17.087C2.16846 16.3702 0 18.0341 0 20.8034V35.8462C0 38.6155 2.16846 41.4414 4.84339 42.1582L19.3736 46.0515C22.0485 46.7683 24.2169 45.1044 24.2169 42.3351V27.2923C24.2169 24.523 22.0485 21.6971 19.3736 20.9803L4.84339 17.087Z" fill="#444CE7"/>
</svg>
